<svg fill="#F0F0F0" xmlns="http://www.w3.org/2000/svg" xmlns:xlink="http://www.w3.org/1999/xlink" version="1.1" x="0px" y="0px" viewBox="0 0 100 100" enable-background="new 0 0 100 100" xml:space="preserve"><g><path d="M5.3,66.2c0.1-0.3,0.2-0.6,0.3-0.8c2.2,5.3,7.4,9,13.4,9c8,0,14.5-6.5,14.5-14.5c0,0,0,0,0,0.1c0.3-3,1.1-6,2.6-8.7   l1.4-2.7c4.4-8.3,15.7-13.3,24-8.9l8.5,4.4c2.7,1.4,6.3,0.5,6.5-3.2l0-7.9c0-1.9,0.5-3.8,1.5-5.4h0c0.1-0.2,0.3-0.5,0.5-0.7l0,0   l0.2-0.3c0.1-0.1,0.2-0.3,0.3-0.4l2.2-2.8l12.3-3.2l1.4,0.5l-0.6,4.5l-0.6,0.5l0.1-0.1v1.8l-4.2,4.4V33v9.5v6.3v0c0,0,0,0.1,0,0.1   c0,0.1,0,0.3,0,0.4c0,0.1,0,0.2,0,0.3c0,0.1,0,0.2,0,0.3c0,0.1,0,0.2,0,0.3c0,0.1,0,0.2,0,0.3c0,0.1,0,0.2,0,0.3c0,0.1,0,0.2,0,0.3   c0,0.1,0,0.2,0,0.3c0,0.1,0,0.2,0,0.3c0,0.1,0,0.2,0,0.3c0,0.1,0,0.2-0.1,0.4c0,0.1,0,0.1,0,0.2c0,0.2-0.1,0.3-0.1,0.5c0,0,0,0,0,0   c-0.6,2.3-1.7,4.4-3.2,6.3L85.9,71l3.2,1.2l1.1,2.2h-5.9l0,0.7l4.2,1.5l1.4,2.7h-8.6l-1.8-5.7l-1.6,1.3l0.4-3.9l-1.9,1.5l0.4-3.9   L75,69.9l0.6-4.6c-2.5,0.4-5.1,0.2-7.6-0.7l-7.1-2.8c-1.3-0.4-2.8,0.1-3.6,1.3l-1.4,2.2c1.1,1.5,1.6,3.2,1.5,5l2.2,1.2h1.2   c1,0,1.9,0.6,2.3,1.4l0.7,1.4H56l3.5,1.8h2.2c1,0,2,0.6,2.4,1.6l0.7,1.6h-12h-5h-9.1l-2.8-7c-2.5,3.4-7,6.7-14.3,7.5l0.3-0.9   c-3.7,0.8-7.7,0.3-9.5-0.2l0.7-0.7c-3.8-1.1-6.4-3.8-6.4-3.8l0.8-0.3C3.9,69.8,5.3,66.2,5.3,66.2z"></path></g></svg>
